# AST/ASF file generated using VICON BodyLanguage
# -----------------------------------------------
:version 1.10
:name VICON
:units
  mass 1.0
  length 0.45
  angle deg
:documentation
   .ast/.asf automatically generated from VICON data using
   VICON BodyBuilder and BodyLanguage model FoxedUp or BRILLIANT.MOD
:root
   order TX TY TZ RX RY RZ
   axis XYZ
   position 0 0 0  
   orientation 0 0 0 
:bonedata
  begin
     id 1 
     name lhipjoint
     direction 0.822369 -0.411937 0.392449 
     length 3.8167 
     axis 0 0 0  XYZ
  end
  begin
     id 2 
     name lfemur
     direction 0.34202 -0.939693 0  
     length 6.16791  
     axis 0 0 20  XYZ
    dof rx ry rz
    limits (-160.0 20.0)
           (-70.0 70.0)
           (-60.0 70.0)
  end
  begin
     id 3 
     name ltibia
     direction 0.34202 -0.939693 0   
     length 7.07101   
     axis 0 0 20   XYZ
    dof rx
    limits (-10.0 170.0)
  end
  begin
     id 4 
     name lfoot
     direction 0.028254 -0.0776273 0.996582   
     length 1.66799   
     axis -90 7.62852e-016 20   XYZ
    dof rx rz
    limits (-45.0 90.0)
           (-70.0 20.0)
  end
  begin
     id 5 
     name ltoes
     direction 1.53483e-011 -4.21688e-011 1   
     length 0.851674   
     axis -90 7.62852e-016 20   XYZ
    dof rx
    limits (-90.0 20.0)
  end
  begin
     id 6 
     name rhipjoint
     direction -0.822466 -0.411836 0.392353   
     length 3.81764  
     axis 0 0 0  XYZ 
  end
  begin
     id 7 
     name rfemur
     direction -0.34202 -0.939693 0   
     length 6.28636   
     axis 0 0 -20   XYZ
    dof rx ry rz
    limits (-160.0 20.0)
           (-70.0 70.0)
           (-70.0 60.0)
  end
  begin
     id 8 
     name rtibia
     direction -0.34202 -0.939693 0   
     length 6.85621   
     axis 0 0 -20   XYZ
    dof rx
    limits (-10.0 170.0)
 end
 begin
     id 9 
     name rfoot
     direction -0.0553036 -0.151945 0.98684   
     length 1.57293  
     axis -90 -7.62852e-016 -20   XYZ
    dof rx rz
    limits (-45.0 90.0)
           (-20.0 70.0)
  end
  begin
     id 10 
     name rtoes
     direction -1.53592e-011 -4.21964e-011 1   
     length 0.802812   
     axis -90 -7.62852e-016 -20   XYZ
    dof rx
    limits (-90.0 20.0)
  end
  begin
     id 11 
     name lowerback
     direction 0.00654913 0.996475 -0.0836396   
     length 1.97212   
     axis 0 0 0   XYZ
    dof rx ry rz
    limits (-20.0 45.0)
           (-30.0 30.0)
           (-30.0 30.0)
  end
  begin
     id 12 
     name upperback
     direction 0.0111875 0.994527 0.103877   
     length 1.89704   
     axis 0 0 0   XYZ
    dof rx ry rz
    limits (-20.0 45.0)
           (-30.0 30.0)
           (-30.0 30.0)
  end
  begin
     id 13 
     name thorax
     direction 0.00473652 0.989004 0.147814   
     length 1.94516   
     axis 0 0 0   XYZ
    dof rx ry rz
    limits (-20.0 45.0)
           (-30.0 30.0)
           (-30.0 30.0)
  end
  begin
     id 14 
     name lowerneck
     direction -0.00925808 0.999011 0.0434791   
     length 1.81771   
     axis 0 0 0   XYZ
    dof rx ry rz
    limits (-20.0 45.0)
           (-30.0 30.0)
           (-30.0 30.0)
  end
  begin
     id 15 
     name upperneck
     direction 0.00451595 0.964412 -0.264365   
     length 1.80434   
     axis 0 0 0   XYZ
    dof rx ry rz
    limits (-20.0 45.0)
           (-30.0 30.0)
           (-30.0 30.0)
  end
  begin
     id 16
     name head
     direction -0.00110849 0.995756 -0.0920241  
     length 1.84006  
     axis 0 0 0   XYZ
    dof rx ry rz
    limits (-20.0 45.0)
           (-30.0 30.0)
           (-30.0 30.0)
  end
  begin
     id 17 
     name lclavicle
     direction 0.921253 0.385213 0.0538957  
     length 3.67415  
     axis 0 0 0   XYZ
    dof ry rz
    limits (-20.0 10.0)
           (0.0 20.0)
  end
  begin
     id 18 
     name lhumerus
     direction 1 -4.48961e-011 6.73441e-028   
     length 4.32712   
     axis 180 -30 -90   XYZ
    dof rx ry rz
    limits (-60.0 90.0)
           (-90.0 90.0)
           (-90.0 90.0)
  end
  begin
     id 19
     name lradius
     direction 1 -4.48985e-011 -9.53507e-028   
     length 3.28587   
     axis 180 -30 -90   XYZ
    dof rx
    limits (-10.0 170.0)
  end
  begin
     id 20
     name lwrist
     direction 1 -4.48951e-011 -4.67472e-027   
     length 1.64293   
     axis 1.65735e-015 90 90   XYZ
    dof ry
    limits (-180.0 0.0)
 end
  begin
     id 21 
     name lhand
     direction 1 -4.48946e-011 -9.34945e-027   
     length 0.433158   
     axis 5.96574e-015 90 90   XYZ
    dof rx rz
    limits (-90.0 90.0)
           (-45.0 45.0)
  end
  begin
     id 22 
     name lfingers
     direction 1 -4.48882e-011 -1.86989e-026   
     length 0.349224   
     axis 1.19315e-014 90 90   XYZ
    dof rx
    limits (0.0 90.0)
  end
  begin
     id 23
     name lthumb
     direction 0.707107 -6.3493e-011 0.707107   
     length 0.501417   
     axis -90 45 2.85299e-015   XYZ
    dof rx rz
    limits (-45.0 45.0)
           (-45.0 45.0)
  end
  begin
     id 24 
     name rclavicle
     direction -0.884378 0.46502 -0.0403866   
     length 3.50218  
     axis 0 0 0   XYZ 
    dof ry rz
    limits (-10.0 20.0)
           (-20.0 0.0)
  end
  begin
     id 25 
     name rhumerus
     direction -1 -4.48964e-011 1.58188e-027  
     length 4.29104   
     axis 180 30 90   XYZ
    dof rx ry rz
    limits (-90.0 60.0)
           (-90.0 90.0)
           (-90.0 90.0)
  end
  begin
     id 26 
     name rradius
     direction -1 -4.48978e-011 -1.9722e-027   
     length 3.2272   
     axis 180 30 90   XYZ
    dof rx
    limits (-10.0 170.0)
  end
  begin
     id 27 
     name rwrist
     direction -1 -4.48969e-011 -4.67472e-027   
     length 1.6136   
     axis 1.65735e-015 -90 -90   XYZ
    dof ry
    limits (-180.0 0.0)
  end
  begin
     id 28
     name rhand
     direction -1 -4.48846e-011 -9.34945e-027   
     length 0.543623   
     axis 5.96574e-015 -90 -90   XYZ
    dof rx rz
    limits (-90.0 90.0)
           (-45.0 45.0)
  end
  begin
     id 29
     name rfingers
     direction -1 -4.49074e-011 -1.86989e-026   
     length 0.438283   
     axis 1.19315e-014 -90 -90   XYZ
    dof rx
    limits (0.0 90.0)
  end
  begin
     id 30
     name rthumb
     direction -0.707107 -6.34834e-011 0.707107   
     length 0.629289   
     axis -90 -45 -2.85299e-015   XYZ
    dof rx rz
    limits (-45.0 45.0)
           (-45.0 45.0)
  end
:hierarchy
  begin
    root lhipjoint rhipjoint lowerback
    lhipjoint lfemur
    lfemur ltibia
    ltibia lfoot
    lfoot ltoes
    rhipjoint rfemur
    rfemur rtibia
    rtibia rfoot
    rfoot rtoes
    lowerback upperback
    upperback thorax
    thorax lowerneck lclavicle rclavicle
    lowerneck upperneck
    upperneck head
    lclavicle lhumerus
    lhumerus lradius
    lradius lwrist
    lwrist lhand lthumb
    lhand lfingers
    rclavicle rhumerus
    rhumerus rradius
    rradius rwrist
    rwrist rhand rthumb
    rhand rfingers
  end

#!OML:ASF H:\GeneralSubjects\Female5\Project 1\Capture day 1\Session 1\Female5.ASF
:FULLY-SPECIFIED
:DEGREES
16
root -26.3329 16.1639 2.2477 -163.988 53.0861 -172.718
lowerback 6.5821 4.25613 7.23809
upperback -10.0526 7.08724 -1.6309
thorax -13.7392 2.68972 -7.12978
lowerneck -12.9711 6.18169 12.5107
upperneck 29.5087 8.22549 -3.17211
head 12.6336 5.18408 -1.98415
rclavicle 9.7156e-014 4.17448e-014
rhumerus -46.6474 8.72807 -82.3203
rradius 28.5177
rwrist -11.2334
rhand -22.0606 -18.9581
rfingers 7.12502
rthumb 4.35021 -48.8934
lclavicle 9.7156e-014 4.17448e-014
lhumerus -46.8142 2.87956 68.5722
lradius 35.6455
lwrist -4.32258
lhand -22.8286 29.7185
lfingers 7.12502
lthumb 3.60862 59.6677
rfemur 13.4819 36.304 42.6418
rtibia -10.0024
rfoot -58.2275 -30.239
rtoes 33.7725
lfemur -10.6841 -27.4448 -20.8969
ltibia 9.37448
lfoot -12.5909 4.52232
ltoes -60.8097
17
root -26.3257 16.1609 2.22687 -163.742 53.2459 -172.419
lowerback 6.6566 4.26028 7.44668
upperback -10.0625 7.13161 -1.59917
thorax -13.7754 2.68739 -7.22568
lowerneck -13.0977 5.96744 13.0182
upperneck 30.1117 8.17701 -4.1785
head 12.9745 5.13178 -2.45455
rclavicle -7.35503e-014 -5.1684e-015
rhumerus -46.5501 8.42187 -82.0817
rradius 28.5205
rwrist -11.2358
rhand -21.998 -19.0285
rfingers 7.12502
rthumb 4.41071 -48.9626
lclavicle -7.35503e-014 -5.1684e-015
lhumerus -46.7612 2.92751 68.4701
lradius 35.4782
lwrist -4.46114
lhand -22.9131 30.3875
lfingers 7.12502
lthumb 3.52701 60.338
rfemur 13.277 36.5117 42.6871
rtibia -9.63119
rfoot -58.0854 -30.4439
rtoes 33.6154
lfemur -10.8831 -27.504 -20.8049
ltibia 10.0443
lfoot -13.1905 4.45382
ltoes -60.8188
18
root -26.3179 16.156 2.20436 -163.622 53.4641 -172.274
lowerback 6.71713 4.23554 7.54302
upperback -10.0812 7.12069 -1.57589
thorax -13.8324 2.66856 -7.26061
lowerneck -13.3569 5.6129 12.5877
upperneck 30.9869 7.80336 -3.97393
head 13.3217 4.9955 -2.35234
rclavicle -1.44616e-014 3.97569e-016
rhumerus -46.5693 8.34512 -81.984
rradius 28.6456
rwrist -11.3375
rhand -21.8591 -19.3438
rfingers 7.12502
rthumb 4.54481 -49.275
lclavicle -1.44616e-014 3.97569e-016
lhumerus -46.8149 2.87321 68.4311
lradius 35.444
lwrist -4.3105
lhand -22.8913 30.8515
lfingers 7.12502
lthumb 3.5481 60.8017
rfemur 12.8678 36.7653 42.4972
rtibia -9.07836
rfoot -57.6708 -31.1481
rtoes 32.3992
lfemur -11.1773 -27.6433 -20.8423
ltibia 10.9871
lfoot -13.9255 4.16658
ltoes -60.7856
19
root -26.3108 16.1491 2.17832 -163.686 53.7146 -172.348
lowerback 6.69942 4.10313 7.37306
upperback -10.0033 6.92882 -1.35822
thorax -13.8035 2.61104 -6.88797
lowerneck -13.8116 5.29843 11.6876
upperneck 32.0324 7.55796 -3.62496
head 13.7765 4.87887 -2.08514
rclavicle -8.75646e-014 1.59028e-014
rhumerus -46.4689 9.25422 -82.0595
rradius 28.7524
rwrist -11.8251
rhand -21.8432 -19.6179
rfingers 7.12502
rthumb 4.56013 -49.5488
lclavicle -8.75646e-014 1.59028e-014
lhumerus -47.0023 3.45777 68.4743
lradius 35.5123
lwrist -4.14406
lhand -22.6889 30.8322
lfingers 7.12502
lthumb 3.74354 60.7791
rfemur 12.3559 37.0284 42.0889
rtibia -8.42431
rfoot -56.9749 -32.5295
rtoes 29.7404
lfemur -11.4845 -27.127 -21.0267
ltibia 11.7807
lfoot -14.1107 2.92986
ltoes -60.6839
20
root -26.3045 16.1407 2.14974 -163.621 53.958 -172.268
lowerback 6.62131 3.89406 7.17563
upperback -9.83127 6.63569 -0.937912
thorax -13.664 2.52906 -6.24642
lowerneck -14.1368 4.97517 10.8308
upperneck 32.6782 7.45856 -3.90389
head 14.0828 4.7226 -2.05903
rclavicle 2.36305e-014 -1.78906e-014
rhumerus -46.1204 10.2908 -81.8308
rradius 28.7846
rwrist -11.9564
rhand -21.5122 -19.7975
rfingers 7.12502
rthumb 4.87978 -49.7213
lclavicle 2.36305e-014 -1.78906e-014
lhumerus -47.2128 4.61967 68.5414
lradius 35.5245
lwrist -4.27454
lhand -22.4527 30.8096
lfingers 7.12502
lthumb 3.97159 60.7524
rfemur 11.8651 37.2878 41.7919
rtibia -7.76176
rfoot -56.2406 -33.8667
rtoes 27.0249
lfemur -11.6748 -27.2096 -21.1641
ltibia 12.4852
lfoot -14.7953 3.43383
ltoes -60.7199
